<svg width="66" height="65" viewBox="0 0 66 65" fill="none" xmlns="http://www.w3.org/2000/svg">
<g id="Group">
<path id="Vector" d="M32.774 0H32.6259C14.7176 0 0.199951 14.5176 0.199951 32.426V32.574C0.199951 50.4824 14.7176 65 32.6259 65H32.774C50.6823 65 65.2 50.4824 65.2 32.574V32.426C65.2 14.5176 50.6823 0 32.774 0Z" fill="#070B44"/>
<g id="Group_2">
<path id="Vector_2" d="M42.7575 13.2241H22.6446C17.0881 13.2241 12.5677 17.7445 12.5677 23.301V41.7013C12.5677 47.2579 17.0881 51.7782 22.6446 51.7782H42.7575C48.314 51.7782 52.8344 47.2579 52.8344 41.7013V23.301C52.8344 17.7445 48.314 13.2241 42.7575 13.2241ZM16.1226 23.301C16.1226 19.7052 19.0488 16.7789 22.6446 16.7789H42.7575C46.3533 16.7789 49.2796 19.7052 49.2796 23.301V41.7013C49.2796 45.2971 46.3533 48.2234 42.7575 48.2234H22.6446C19.0488 48.2234 16.1226 45.2971 16.1226 41.7013V23.301Z" fill="white"/>
<path id="Vector_3" d="M32.7011 41.8719C37.8682 41.8719 42.0743 37.6681 42.0743 32.4987C42.0743 27.3293 37.8705 23.1255 32.7011 23.1255C27.5317 23.1255 23.3279 27.3293 23.3279 32.4987C23.3279 37.6681 27.5317 41.8719 32.7011 41.8719ZM32.7011 26.6826C35.9098 26.6826 38.5195 29.2923 38.5195 32.501C38.5195 35.7097 35.9098 38.3194 32.7011 38.3194C29.4924 38.3194 26.8827 35.7097 26.8827 32.501C26.8827 29.2923 29.4924 26.6826 32.7011 26.6826Z" fill="white"/>
<path id="Vector_4" d="M42.942 24.6399C44.3334 24.6399 45.4675 23.508 45.4675 22.1144C45.4675 20.7207 44.3357 19.5889 42.942 19.5889C41.5483 19.5889 40.4165 20.7207 40.4165 22.1144C40.4165 23.508 41.5483 24.6399 42.942 24.6399Z" fill="white"/>
</g>
</g>
</svg>
