<svg width="66" height="65" viewBox="0 0 66 65" fill="none" xmlns="http://www.w3.org/2000/svg">
<g id="Group">
<path id="Vector" d="M32.9739 0H32.8259C14.9175 0 0.399902 14.5176 0.399902 32.426V32.574C0.399902 50.4824 14.9175 65 32.8259 65H32.9739C50.8823 65 65.3999 50.4824 65.3999 32.574V32.426C65.3999 14.5176 50.8823 0 32.9739 0Z" fill="#070B44"/>
<g id="Group_2">
<path id="Vector_2" d="M39.2341 42.0064C30.9152 42.0064 24.1472 35.2361 24.1449 26.9173C24.1472 24.8085 25.8642 23.0938 27.9684 23.0938C28.1848 23.0938 28.3988 23.112 28.6038 23.1484C29.0547 23.2236 29.4828 23.3761 29.8768 23.6061C29.9337 23.6403 29.9724 23.695 29.9815 23.7587L30.8606 29.2993C30.8719 29.3631 30.8514 29.4291 30.8082 29.4769C30.3231 30.0144 29.7037 30.4015 29.0137 30.5951L28.6812 30.6884L28.8065 31.0095C29.9405 33.8971 32.2497 36.204 35.1395 37.3426L35.4606 37.4701L35.554 37.1377C35.7476 36.4476 36.1347 35.8282 36.6721 35.3432C36.7109 35.3067 36.7632 35.2885 36.8156 35.2885C36.827 35.2885 36.8384 35.2885 36.852 35.2908L42.3926 36.1698C42.4587 36.1812 42.5133 36.2176 42.5475 36.2746C42.7752 36.6685 42.9278 37.0989 43.0052 37.5498C43.0417 37.7502 43.0576 37.962 43.0576 38.1829C43.0576 40.2894 41.3428 42.0042 39.2341 42.0064Z" fill="white"/>
<path id="Vector_3" d="M53.9862 30.6747C53.5376 25.6055 51.2148 20.903 47.4459 17.4347C43.6543 13.9459 38.7354 12.0239 33.591 12.0239C22.3004 12.0239 13.1139 21.2104 13.1139 32.5011C13.1139 36.2905 14.1591 39.9819 16.1381 43.1974L11.7247 52.9669L25.8552 51.4616C28.3123 52.4682 30.913 52.9783 33.5888 52.9783C34.2924 52.9783 35.0143 52.9418 35.7385 52.8667C36.3761 52.7984 37.0206 52.6982 37.6537 52.5706C47.1089 50.66 54.0113 42.2683 54.0659 32.6104V32.5011C54.0659 31.8862 54.0386 31.2714 53.984 30.677L53.9862 30.6747ZM26.3994 47.1735L18.5816 48.007L20.9158 42.8353L20.4489 42.2091C20.4148 42.1635 20.3806 42.118 20.3419 42.0656C18.3152 39.2669 17.2448 35.9603 17.2448 32.5034C17.2448 23.49 24.5776 16.1572 33.591 16.1572C42.0351 16.1572 49.1926 22.7453 49.8826 31.1552C49.919 31.6061 49.9395 32.0593 49.9395 32.5057C49.9395 32.6332 49.9373 32.7584 49.935 32.8928C49.7619 40.4328 44.4946 46.8365 37.1254 48.467C36.5629 48.5923 35.9867 48.6879 35.4129 48.7494C34.8162 48.8177 34.2036 48.8519 33.5956 48.8519C31.4299 48.8519 29.3257 48.4328 27.3377 47.6039C27.1168 47.5151 26.9004 47.4195 26.6978 47.3215L26.4017 47.1781L26.3994 47.1735Z" fill="white"/>
</g>
</g>
</svg>
