<svg width="65" height="65" viewBox="0 0 65 65" fill="none" xmlns="http://www.w3.org/2000/svg">
<g id="Group 2">
<g id="Group">
<path id="Vector" d="M32.574 0H32.426C14.5176 0 0 14.5176 0 32.426V32.574C0 50.4824 14.5176 65 32.426 65H32.574C50.4824 65 65 50.4824 65 32.574V32.426C65 14.5176 50.4824 0 32.574 0Z" fill="#070B44"/>
</g>
<g id="Group 1">
<g id="Group_2">
<path id="Vector_2" d="M42.8325 15.4631H21.9707C16.2072 15.4631 11.5185 19.4913 11.5185 24.4428V40.8395C11.5185 45.791 16.2072 49.8192 21.9707 49.8192H42.8325C48.596 49.8192 53.2847 45.791 53.2847 40.8395V24.4428C53.2847 19.4913 48.596 15.4631 42.8325 15.4631ZM15.2057 24.4428C15.2057 21.2385 18.2409 18.6309 21.9707 18.6309H42.8325C46.5622 18.6309 49.5975 21.2385 49.5975 24.4428V40.8395C49.5975 44.0438 46.5622 46.6515 42.8325 46.6515H21.9707C18.2409 46.6515 15.2057 44.0438 15.2057 40.8395V24.4428Z" fill="white"/>
</g>
<path id="Vector (Stroke)" fill-rule="evenodd" clip-rule="evenodd" d="M24.6221 30.0011L15.0792 22.4928L17.9287 18.8733L32.3402 30.2123L46.7517 18.8733L49.6011 22.4928L40.0679 29.9936C42.8236 34.4148 46.5558 39.9519 48.7646 43.2289C49.3149 44.0453 49.7706 44.7215 50.0932 45.2051L46.2596 47.7601C45.955 47.3033 45.5168 46.6533 44.9827 45.8609C42.859 42.7107 39.2184 37.3104 36.4263 32.8588L32.3414 36.0728L28.2674 32.8728C26.683 35.4722 24.7423 38.61 22.9975 41.3368C21.8574 43.1186 20.7857 44.7489 19.946 45.9438C19.5305 46.5349 19.1442 47.0592 18.8199 47.4512C18.6635 47.6403 18.4762 47.8543 18.2767 48.0398C18.18 48.1298 18.0249 48.2656 17.8253 48.3926C17.6968 48.4743 17.2043 48.7856 16.504 48.7856V44.1796C15.8626 44.1796 15.4314 44.4556 15.3557 44.5041L15.351 44.5072C15.2227 44.5888 15.1479 44.6586 15.1389 44.667L15.1384 44.6676C15.1357 44.67 15.1343 44.6713 15.1343 44.6713C15.1341 44.6711 15.1762 44.6285 15.2692 44.5161C15.4769 44.265 15.7811 43.8579 16.1761 43.2958C16.9572 42.1843 17.986 40.6212 19.1163 38.8548C20.9458 35.9956 23.0012 32.6663 24.6221 30.0011Z" fill="white"/>
</g>
</g>
</svg>
